<svg width="15.000000" height="12.000000" viewBox="0 0 15 12" fill="none" xmlns="http://www.w3.org/2000/svg" xmlns:xlink="http://www.w3.org/1999/xlink">
	<desc>
			Created with Pixso.
	</desc>
	<defs/>
	<path id="Vector" d="M13.5 0L1.5 0C0.67 0 0 0.67 0 1.5L0 10.5C0 11.32 0.67 12 1.5 12L13.5 12C14.32 12 15 11.32 15 10.5L15 1.5C15 0.67 14.32 0 13.5 0ZM13.2 3.18L7.89 6.5C7.65 6.65 7.34 6.65 7.1 6.5L1.8 3.18C1.61 3.06 1.5 2.86 1.5 2.64C1.5 2.14 2.04 1.84 2.47 2.1L7.5 5.25L12.52 2.1C12.95 1.84 13.5 2.14 13.5 2.64C13.5 2.86 13.38 3.06 13.2 3.18Z" fill="#2E2F42" fill-opacity="1.000000" fill-rule="nonzero"/>
</svg>
